<svg t="1781081680591" class="icon" viewBox="0 0 1024 1024" version="1.1" xmlns="http://www.w3.org/2000/svg" p-id="15584" width="200" height="200"><path d="M102.4 230.4a76.8 76.8 0 0 1 76.8-76.8h167.424a25.6 25.6 0 0 1 19.4432 8.9344l61.4656 71.7312A25.6 25.6 0 0 0 446.976 243.2H844.8a76.8 76.8 0 0 1 76.8 76.8v473.6a76.8 76.8 0 0 1-76.8 76.8H179.2a76.8 76.8 0 0 1-76.8-76.8V230.4z" fill="#1677FF" p-id="15585"></path><path d="M102.4 384h819.2v460.8a76.8 76.8 0 0 1-76.8 76.8H179.2a76.8 76.8 0 0 1-76.8-76.8V384z" fill="#FFFFFF" fill-opacity=".35" p-id="15586"></path><path d="M345.6 384h332.8v51.2H345.6v-51.2z" fill="#FFFFFF" p-id="15587"></path><path d="M614.4 742.4a89.6 89.6 0 1 0-85.888-115.2H320.1024v44.9024l-0.1024 0.0896L356.5568 704l36.544-31.808h2.2272L431.872 704l36.5568-31.808h58.4704A89.6384 89.6384 0 0 0 614.4 742.4z m-64-89.216a64 64 0 1 0 0-0.768v0.768z m102.4-0.384a38.4 38.4 0 1 1-76.8 0 38.4 38.4 0 0 1 76.8 0z" fill="#FFFFFF" p-id="15588"></path></svg>
