<svg t="1781081379208" class="icon" viewBox="0 0 1024 1024" version="1.1" xmlns="http://www.w3.org/2000/svg" p-id="5265" width="200" height="200"><path d="M842.666667 384h-74.666667V277.333333a234.666667 234.666667 0 1 0-469.333333 0v106.666667H224a53.393333 53.393333 0 0 0-53.333333 53.333333v490.666667a53.393333 53.393333 0 0 0 53.333333 53.333333h618.666667a53.393333 53.393333 0 0 0 53.333333-53.333333V437.333333a53.393333 53.393333 0 0 0-53.333333-53.333333zM341.333333 277.333333c0-105.866667 86.133333-192 192-192s192 86.133333 192 192v106.666667H341.333333z m512 650.666667a10.666667 10.666667 0 0 1-10.666666 10.666667H224a10.666667 10.666667 0 0 1-10.666667-10.666667V437.333333a10.666667 10.666667 0 0 1 10.666667-10.666666h618.666667a10.666667 10.666667 0 0 1 10.666666 10.666666zM533.333333 554.666667a64 64 0 0 0-21.333333 124.34V789.333333a21.333333 21.333333 0 0 0 42.666667 0v-110.326666A64 64 0 0 0 533.333333 554.666667z m0 85.333333a21.333333 21.333333 0 1 1 21.333334-21.333333 21.333333 21.333333 0 0 1-21.333334 21.333333z" fill="#5C5C66" p-id="5266"></path></svg>
