<svg t="1781081643677" class="icon" viewBox="0 0 1024 1024" version="1.1" xmlns="http://www.w3.org/2000/svg" p-id="14527" width="200" height="200"><path d="M684.16064 409.6a172.8 172.8 0 1 0-201.216 170.496v182.272a28.672 28.672 0 0 0 28.16 23.552h90.88a28.672 28.672 0 0 0 23.552-28.16v-5.12a29.44 29.44 0 0 0-28.416-23.808H541.05664v-30.72h56.32a28.928 28.928 0 0 0 0-57.856H541.05664v-59.904A172.8 172.8 0 0 0 684.16064 409.6z m-172.544 115.2a114.944 114.944 0 1 1 81.92-33.536 115.456 115.456 0 0 1-81.92 33.536z" fill="#FFFFFF" p-id="14528"></path><path d="M511.36064 1024a105.728 105.728 0 0 1-65.792-25.6l-156.416-128A501.76 501.76 0 0 1 105.85664 481.536v-216.576a137.728 137.728 0 0 1 78.592-123.904l272.128-128a128 128 0 0 1 110.08 0l272.128 128a137.216 137.216 0 0 1 78.592 123.904v216.576A501.76 501.76 0 0 1 733.56864 870.4l-156.416 128a105.984 105.984 0 0 1-65.792 23.552z m0-956.16a58.88 58.88 0 0 0-27.136 6.4l-272.128 128a71.936 71.936 0 0 0-40.96 64.256v216.832A436.736 436.736 0 0 0 330.62464 819.2l156.416 128a38.656 38.656 0 0 0 48.64 0L694.65664 819.2a435.2 435.2 0 0 0 157.952-337.92v-216.32a71.168 71.168 0 0 0-40.96-64.512L541.05664 72.96a61.44 61.44 0 0 0-28.416-6.4z" fill="#FFFFFF" p-id="14529"></path></svg>
