<svg t="1781081742098" class="icon" viewBox="0 0 1024 1024" version="1.1" xmlns="http://www.w3.org/2000/svg" p-id="16593" width="200" height="200"><path d="M510.1 560.4c-82.3 0-149.2-67-149.2-149.2 0-82.3 67-149.2 149.2-149.2 82.3 0 149.2 67 149.2 149.2 0.1 82.3-66.9 149.2-149.2 149.2z m0-238.5c-49.2 0-89.2 40-89.2 89.2s40 89.2 89.2 89.2 89.2-40 89.2-89.2-39.9-89.2-89.2-89.2z" fill="#18B66A" p-id="16594"></path><path d="M505.9 761.3c-19.1 0-34.5-15.4-34.5-34.5V539.4c0-19.1 15.4-34.5 34.5-34.5s34.5 15.4 34.5 34.5v187.5c0 19-15.4 34.4-34.5 34.4z" fill="#18B66A" p-id="16595"></path><path d="M574.9 628.8h-36.2c-1.7 0-3.1-1.4-3.1-3.1v-42c0-1.7 1.4-3.1 3.1-3.1h36.2c13.3 0 24.1 10.8 24.1 24.1-0.1 13.3-10.8 24.1-24.1 24.1zM574.9 698.1h-36.2c-1.7 0-3.1-1.4-3.1-3.1v-42c0-1.7 1.4-3.1 3.1-3.1h36.2c13.3 0 24.1 10.8 24.1 24.1-0.1 13.3-10.8 24.1-24.1 24.1z" fill="#18B66A" p-id="16596"></path><path d="M509.7 930.9c-49 0-96.9-8.7-142.6-26-48.9-18.5-93.2-46-131.7-81.6s-69.3-77.8-91.5-125.1c-23-49-35.7-101.5-37.8-156-2.9-76.8 15.8-152.4 54.3-218.5 8.9-15.3 28.5-20.5 43.8-11.6 15.3 8.9 20.5 28.5 11.6 43.8-32.4 55.6-48.2 119.2-45.7 183.9 3.5 90.8 42.1 174.9 108.8 236.6 66.7 61.8 153.4 93.9 244.3 90.4 90.8-3.5 174.9-42.1 236.6-108.8 61.8-66.7 93.9-153.4 90.4-244.3-3.5-90.8-42.1-174.9-108.8-236.6-66.7-61.8-153.4-93.9-244.3-90.4-40.7 1.6-80.1 10.2-117.4 25.6-36 14.9-68.9 35.8-97.9 62.1-13.1 11.9-33.3 10.9-45.2-2.2-11.9-13.1-10.9-33.3 2.2-45.2 34.4-31.2 73.6-56 116.3-73.7 44.2-18.4 91.2-28.6 139.4-30.4 54.5-2.1 107.8 6.6 158.5 25.7 48.9 18.5 93.2 46 131.7 81.6S854 308 876.2 355.3c23 49 35.7 101.5 37.8 156 2.1 54.5-6.6 107.8-25.7 158.5-18.5 48.9-46 93.2-81.6 131.7C771 840 728.9 870.8 681.6 893c-49 23-101.5 35.7-156 37.8-5.3 0-10.6 0.1-15.9 0.1z" fill="#18B66A" p-id="16597"></path></svg>
