<svg t="1781081435044" class="icon" viewBox="0 0 1024 1024" version="1.1" xmlns="http://www.w3.org/2000/svg" p-id="6282" width="200" height="200"><path d="M959.488 195.584c-4.608-22.016-23.04-38.4-45.568-39.424-173.056-4.608-315.392-92.672-372.736-134.656-17.408-12.8-40.448-12.8-57.856 0-58.88 41.984-199.68 130.048-372.736 134.656-22.016 1.024-41.472 17.408-45.568 39.424-27.648 138.24-75.264 606.72 448 824.32 521.728-218.112 473.088-686.08 446.464-824.32z m-446.976 745.472C66.56 755.2 111.616 353.28 134.144 240.64c3.584-17.408 18.432-29.184 36.864-30.208 149.504-2.56 271.872-80.384 319.488-115.2 12.8-9.216 31.232-9.216 44.032 0 48.64 34.816 170.496 112.64 319.488 115.2 17.408 0 32.768 12.8 36.864 30.208 22.016 113.152 68.096 514.56-378.368 700.416z" fill="#DDEEFF" p-id="6283"></path><path d="M476.672 595.456c-7.68 0-15.36-3.072-20.992-8.704L342.528 478.72c-12.288-11.776-12.8-31.232-1.024-43.52s31.232-12.8 43.52-1.024L476.16 521.728l195.584-195.072c11.776-11.776 31.232-11.776 43.52 0 11.776 11.776 11.776 31.232 0 43.52l-216.576 216.064c-6.144 6.144-14.336 9.216-22.016 9.216z" fill="#2F7DF4" p-id="6284"></path></svg>
