<svg t="1781081319838" class="icon" viewBox="0 0 1024 1024" version="1.1" xmlns="http://www.w3.org/2000/svg" p-id="2981" width="200" height="200"><path d="M711.9744 335.6032c5.19424 0 10.28992 0.09728 15.38816 0.34176C700.40704 189.1712 548.79616 76.8 365.80608 76.8 163.75552 76.8 0 213.7728 0 382.74688 0 481.8112 56.28416 569.90208 143.58656 625.792c1.12896 0.7104 3.35744 2.10816 3.35744 2.10816l-35.35616 110.73024 132.2432-67.36c0 0 4.13952 1.19936 6.22208 1.78944 36.36224 10.11968 75.29856 15.6096 115.75296 15.6096 8.25728 0 16.4416-0.31872 24.57728-0.76032-7.49696-23.25504-11.61472-47.73376-11.61472-72.99584C378.76864 460.66432 527.9936 335.6032 711.9744 335.6032zM493.09952 227.64032c28.37504 0 51.3344 22.24896 51.3344 49.74336 0 27.44192-22.95808 49.7408-51.3344 49.7408-28.39808 0-51.35616-22.29888-51.35616-49.7408C441.74208 249.88928 464.70144 227.64032 493.09952 227.64032zM238.51136 327.12448c-28.37248 0-51.35616-22.29888-51.35616-49.7408 0-27.4944 22.98368-49.74336 51.35616-49.74336 28.40064 0 51.40992 22.24896 51.40992 49.74336C289.92128 304.8256 266.912 327.12448 238.51136 327.12448z" fill="#969696" p-id="2982"></path><path d="M405.67424 616.72704c0 142.75328 138.39232 258.48192 309.09312 258.48192 34.1568 0 67.04128-4.65408 97.76768-13.23008 1.76384-0.4672 5.24416-1.52064 5.24416-1.52064l111.68384 56.9472-29.8432-93.5552c0 0 1.91232-1.19936 2.84288-1.78688 73.70496-47.2192 121.29024-121.60896 121.29024-205.33632 0-142.73152-138.34496-258.43456-308.9856-258.43456C544.06656 358.29248 405.67424 473.99552 405.67424 616.72704zM778.8672 527.7056c0-23.17952 19.40608-41.97248 43.37024-41.97248 24.0128 0 43.42016 18.79296 43.42016 41.97248 0 23.22944-19.40864 42.048-43.42016 42.048C798.27328 569.7536 778.8672 550.93504 778.8672 527.7056zM563.79136 527.7056c0-23.17952 19.4304-41.97248 43.39456-41.97248 23.98976 0 43.42016 18.79296 43.42016 41.97248 0 23.22944-19.4304 42.048-43.42016 42.048C583.22176 569.7536 563.79136 550.93504 563.79136 527.7056z" fill="#969696" p-id="2983"></path></svg>
