<svg width="72" height="72" viewBox="0 0 72 72" fill="none" xmlns="http://www.w3.org/2000/svg">
  <defs>
    <linearGradient id="privateGradient" x1="19" y1="12" x2="53" y2="58" gradientUnits="userSpaceOnUse">
      <stop stop-color="#C56BFF"/>
      <stop offset="1" stop-color="#8C45F2"/>
    </linearGradient>
  </defs>
  <path d="M25 29V24C25 17.9 29.9 13 36 13C42.1 13 47 17.9 47 24V29H49C53.4 29 57 32.6 57 37V51C57 55.4 53.4 59 49 59H23C18.6 59 15 55.4 15 51V37C15 32.6 18.6 29 23 29H25ZM31 29H41V24C41 21.2 38.8 19 36 19C33.2 19 31 21.2 31 24V29Z" fill="url(#privateGradient)"/>
  <path d="M36 41V48" stroke="white" stroke-width="4.5" stroke-linecap="round"/>
  <circle cx="36" cy="40" r="3.2" fill="white"/>
</svg>
